<svg xmlns="http://www.w3.org/2000/svg" width="1280" height="400" viewBox="0 0 1280 400"><rect width="1280" height="400" rx="24" fill="#08090A"/><rect x="1" y="1" width="1278" height="398" rx="24" fill="none" stroke="#25282B"/><g transform="translate(95 70) scale(1.8)"><path d="M20,20 H89 L106,35 V54 L96,64 L106,74 V94 L90,109 H43 V91 H82 L88,85 V79 L82,73 H43 V55 H81 L87,49 V43 L81,37 H30 Z M19,43 H29 L38,56 V76 L19,62 Z M19,72 L38,85 V108 L19,95 Z" fill="#00E8D2"/></g><text x="340" y="169" fill="#F2F2ED" font-family="Segoe UI,Arial,sans-serif" font-size="76" font-weight="700">BlockMook</text><text x="343" y="230" fill="#A6A9AF" font-family="Segoe UI,Arial,sans-serif" font-size="25">Управление подключением для Windows</text><text x="344" y="302" fill="#00E8D2" font-family="Segoe UI,Arial,sans-serif" font-size="15" letter-spacing="3">WINDOWS · OPEN SOURCE · 1.0</text></svg>
